<?xml version="1.0" encoding="iso-8859-1"?>
<!-- Generator: Adobe Illustrator 19.1.0, SVG Export Plug-In . SVG Version: 6.00 Build 0)  -->
<svg version="1.1" id="Capa_1" xmlns="http://www.w3.org/2000/svg" xmlns:xlink="http://www.w3.org/1999/xlink" x="0px" y="0px"
	 viewBox="0 0 218.517 218.517" style="enable-background:new 0 0 218.517 218.517;" xml:space="preserve">
<g>
	<g id="group-132svg">
		<path id="path-1_37_" style="fill:#FF3A2F;" d="M86.569,179.656H67.805c-3.618,0-6.551,1.618-6.551,3.616
			c0,1.999,2.933,3.618,6.551,3.618h0.874c3.617,0,6.551,1.619,6.551,3.617s-2.934,3.618-6.551,3.618H28.341
			c-3.616,0-6.55,1.62-6.55,3.618s2.934,3.618,6.55,3.618h48.476h99.08c3.618,0,6.55-1.62,6.55-3.618s-2.932-3.618-6.55-3.618
			h-11.195c-3.618,0-6.551-1.62-6.551-3.618s2.933-3.617,6.551-3.617h43.967c3.618,0,6.55-1.619,6.55-3.618
			c0-1.998-2.932-3.616-6.55-3.616h-3.281H86.569z"/>
		<path id="path-2_37_" style="fill:#FF3A2F;" d="M23.298,183.773c-3.033,0-5.492-0.868-5.492-1.938c0-1.07,2.459-1.938,5.492-1.938
			h16.83c3.032,0,5.491,0.868,5.491,1.938c0,1.07-2.459,1.938-5.491,1.938H23.298z"/>
		<path id="path-3_37_" style="fill:#FF3A2F;" d="M207.014,149.901h3.332c0.643,0,1.163,0.896,1.163,2c0,1.105-0.52,2-1.163,2
			h-0.155c-0.643,0-1.164,0.895-1.164,2.001c0,1.105,0.521,2,1.164,2h7.163c0.643,0,1.163,0.895,1.163,2.001
			c0,1.105-0.52,2.001-1.163,2.001h-8.609H191.15c-0.642,0-1.164-0.896-1.164-2.001c0-1.106,0.522-2.001,1.164-2.001h1.989
			c0.642,0,1.163-0.895,1.163-2c0-1.106-0.521-2.001-1.163-2.001h-9.463c-0.641,0-1.162-0.895-1.162-2c0-1.104,0.521-2,1.162-2
			h2.237H207.014z"/>
		<path id="path-4_37_" style="fill:#FF3A2F;" d="M42.042,145.531h2.264c0.436,0,0.79,0.381,0.79,0.851s-0.354,0.85-0.79,0.85H44.2
			c-0.435,0-0.789,0.382-0.789,0.851c0,0.47,0.354,0.851,0.789,0.851h4.867c0.436,0,0.789,0.381,0.789,0.851
			s-0.353,0.851-0.789,0.851h-5.848H31.267c-0.436,0-0.791-0.381-0.791-0.851s0.355-0.851,0.791-0.851h1.35
			c0.436,0,0.791-0.381,0.791-0.851c0-0.469-0.355-0.851-0.791-0.851h-6.426c-0.437,0-0.79-0.38-0.79-0.85s0.353-0.851,0.79-0.851
			h1.518H42.042z"/>
		<path id="path-5_37_" style="fill:#FF3A2F;" d="M181.743,161.904c1.198,0,2.17-0.743,2.17-1.657c0-0.914-0.972-1.656-2.17-1.656
			h-6.652c-1.197,0-2.17,0.742-2.17,1.656c0,0.914,0.973,1.657,2.17,1.657H181.743z"/>
		<path id="path-6_37_" style="fill:#FF3A2F;" d="M121.83,160.247c1.199,0,2.171-0.741,2.171-1.656c0-0.914-0.972-1.656-2.171-1.656
			h-6.65c-1.199,0-2.17,0.742-2.17,1.656c0,0.915,0.971,1.656,2.17,1.656H121.83z"/>
		<path id="path-7_37_" style="fill:#142A3B;" d="M102.538,155.017c0-10.078-8.247-18.248-18.42-18.248
			c-10.174,0-18.421,8.17-18.421,18.248c0,10.077,8.247,18.248,18.421,18.248C94.291,173.265,102.538,165.094,102.538,155.017z"/>
		<path id="path-8_37_" style="fill:#142A3B;" d="M173.686,155.017c0-10.753-8.799-19.471-19.654-19.471
			c-10.855,0-19.655,8.718-19.655,19.471c0,10.754,8.8,19.471,19.655,19.471C164.887,174.488,173.686,165.771,173.686,155.017z"/>
		<path id="path-9_34_" style="opacity:0.35;fill:#010101;enable-background:new    ;" d="M93.909,139.528
			c1.788,2.813,2.839,6.132,2.839,9.701c0,10.077-8.248,18.247-18.421,18.247c-3.603,0-6.953-1.04-9.791-2.811
			c3.26,5.128,9.012,8.548,15.582,8.548c10.173,0,18.421-8.171,18.421-18.25C102.539,148.456,99.087,142.758,93.909,139.528z"/>
		<path id="path-10_32_" style="opacity:0.35;fill:#010101;enable-background:new    ;" d="M159.557,136.288
			c4.816,3.549,7.95,9.212,7.95,15.616c0,10.754-8.798,19.471-19.653,19.471c-1.92,0-3.771-0.285-5.525-0.794
			c3.272,2.41,7.312,3.854,11.703,3.854c10.855,0,19.654-8.718,19.654-19.472C173.686,146.114,167.719,138.654,159.557,136.288z"/>
		<path id="path-11_28_" style="fill:#142A3B;" d="M48.993,85.409c-0.939,0-1.877-0.317-2.588-1.03L23.801,61.777H3.638
			c-2.012,0-3.638-2.01-3.638-4c0-1.99,1.626-3.999,3.638-3.999h23.198L51.58,78.915c1.414,1.415,1.4,3.875-0.029,5.274
			C50.841,84.884,49.917,85.409,48.993,85.409z"/>
		<path id="path-12_24_" style="fill:#FBB713;" d="M152.708,17.156h-33.725v62.552h75.89V59.324
			C194.873,36.035,175.995,17.156,152.708,17.156z"/>
		<path id="path-13_19_" style="opacity:0.25;fill:#010101;enable-background:new    ;" d="M152.469,17.156h-28.02
			c27.301,0,49.432,21.923,49.432,48.969v13.583h20.992V66.125C197.79,41.242,179.77,17.156,152.469,17.156z"/>
		<path id="path-14_15_" style="fill:#2476FF;" d="M43.091,78.236v23.526c0,19.228,15.733,34.814,35.142,34.814h81.499
			c19.407,0,35.141-15.586,35.141-34.814V78.236H43.091z"/>
		<path id="path-15_13_" style="opacity:0.35;fill:#010101;enable-background:new    ;" d="M173.686,78.236l0.195,6.89
			c0,19.227-15.733,34.814-35.143,34.814H57.241c-3.403,0-6.683-0.505-9.796-1.399c5.983,10.749,17.523,18.035,30.788,18.035h81.499
			c19.407,0,35.141-15.586,35.141-34.814l-0.195-23.526H173.686z"/>
	</g>
</g>
<g>
</g>
<g>
</g>
<g>
</g>
<g>
</g>
<g>
</g>
<g>
</g>
<g>
</g>
<g>
</g>
<g>
</g>
<g>
</g>
<g>
</g>
<g>
</g>
<g>
</g>
<g>
</g>
<g>
</g>
</svg>
