<?xml version="1.0" encoding="iso-8859-1"?>
<!-- Generator: Adobe Illustrator 19.1.0, SVG Export Plug-In . SVG Version: 6.00 Build 0)  -->
<svg version="1.1" id="Capa_1" xmlns="http://www.w3.org/2000/svg" xmlns:xlink="http://www.w3.org/1999/xlink" x="0px" y="0px"
	 viewBox="0 0 218.332 218.332" style="enable-background:new 0 0 218.332 218.332;" xml:space="preserve">
<g>
	<g id="group-60svg">
		<path id="path-1_125_" style="fill:#2476FF;" d="M101.135,175.201h13.54c2.61,0,4.727,1.328,4.727,2.967
			c0,1.638-2.117,2.967-4.727,2.967h-0.631c-2.61,0-4.726,1.328-4.726,2.966c0,1.639,2.116,2.967,4.726,2.967h29.107
			c2.61,0,4.726,1.329,4.726,2.968c0,1.638-2.116,2.966-4.726,2.966h-34.979H69.728c-2.611,0-4.727-1.328-4.727-2.966
			c0-1.639,2.116-2.968,4.727-2.968h8.078c2.61,0,4.726-1.328,4.726-2.967c0-1.638-2.116-2.966-4.726-2.966H39.361
			c-2.611,0-4.726-1.329-4.726-2.967c0-1.639,2.115-2.967,4.726-2.967h9.086H101.135z"/>
		<path id="path-2_125_" style="fill:#2476FF;" d="M21.41,147.223h4.36c0.84,0,1.521,0.731,1.521,1.631
			c0,0.899-0.681,1.629-1.521,1.629h-0.204c-0.84,0-1.521,0.73-1.521,1.631c0,0.899,0.681,1.628,1.521,1.628h9.371
			c0.841,0,1.522,0.73,1.522,1.631c0,0.9-0.681,1.629-1.522,1.629H23.676H11.298c-0.84,0-1.521-0.729-1.521-1.629
			c0-0.901,0.681-1.631,1.521-1.631h2.601c0.84,0,1.522-0.729,1.522-1.628c0-0.901-0.682-1.631-1.522-1.631H1.522
			c-0.841,0-1.522-0.73-1.522-1.629c0-0.9,0.681-1.631,1.522-1.631h2.925H21.41z"/>
		<path id="path-3_125_" style="fill:#2476FF;" d="M184.936,195.57c2.981,0,5.397-1.518,5.397-3.389c0-1.87-2.416-3.386-5.397-3.386
			h-16.539c-2.98,0-5.397,1.516-5.397,3.386c0,1.871,2.417,3.389,5.397,3.389H184.936z"/>
		<path id="path-4_124_" style="fill:#FF3A2F;" d="M128.44,22.768L163.695,57.7h-14.548v61.793h13.575v-18.447h45.39v-0.004v68.021
			c-5.859-3.261-12.309-5.061-19.048-5.061c-0.978,0-1.976,0.048-3.033,0.142c-4.509-4.525-10.185-6.984-16.228-6.984
			c-1.599,0-3.218,0.21-4.911,0.644c-10.984-8.634-24.515-13.356-38.418-13.356c-10.175,0-20.165,2.529-29.163,7.335
			c-4.638-5.274-10.875-8.314-17.38-8.314c-11.411,0-21.064,8.801-24.028,21.398c-3.869,0.827-7.587,2.292-11.108,4.25v-49.629
			v-18.446h45.39v18.446h13.576V57.694H89.212l35.255-34.93l0,0"/>
		<path id="path-5_124_" style="opacity:0.35;fill:#020403;enable-background:new    ;" d="M83.535,101.042v18.446h6.65v-18.446
			H83.535z"/>
		<path id="path-6_123_" style="opacity:0.25;fill:#020403;enable-background:new    ;" d="M128.44,22.768L163.695,57.7h-6.649
			l-33.92-33.607l1.341-1.33L128.44,22.768z"/>
		<path id="path-7_123_" style="opacity:0.35;fill:#020403;enable-background:new    ;" d="M142.496,119.493h6.651V57.7h-6.651
			V119.493z"/>
		<path id="path-8_120_" style="fill:#020403;" d="M164.062,157.206c0.273,0.206,0.561,0.386,0.83,0.597
			c0.592-0.151,1.167-0.24,1.743-0.338C165.787,157.329,164.93,157.242,164.062,157.206z"/>
		<path id="path-9_114_" style="opacity:0.35;fill:#020403;enable-background:new    ;" d="M201.462,166.17
			c2.278,0.784,4.515,1.705,6.651,2.893v-68.017h-6.651V166.17z"/>
		<path id="path-10_106_" style="fill:#020403;" d="M119.823,144.448c-8.507,0-16.878,1.792-24.656,5.181
			c0.743,0.674,1.465,1.381,2.144,2.154c7.867-4.203,16.495-6.662,25.34-7.215C121.708,144.525,120.769,144.448,119.823,144.448z"/>
		<path id="path-11_93_" style="opacity:0.35;fill:#020403;enable-background:new    ;" d="M73.281,143.469
			c-11.411,0-21.063,8.801-24.028,21.398c-1.512,0.324-2.994,0.772-4.458,1.281v2.969c3.521-1.958,7.239-3.423,11.108-4.25
			c2.665-11.326,10.744-19.559,20.638-21.111C75.465,143.587,74.379,143.469,73.281,143.469z"/>
		<path id="path-12_81_" style="fill:#142A3B;" d="M136.445,73.667c0-5.466-4.469-9.898-9.991-9.898
			c-5.522,0-9.991,4.428-9.991,9.898v19.445h19.976V73.667H136.445z"/>
		<path id="path-13_69_" style="opacity:0.35;fill:#020403;enable-background:new    ;" d="M127.266,63.85
			c1.555,1.745,2.528,4.012,2.528,6.522h-0.005v19.445h-13.326v3.295h19.977V73.667h0.005
			C136.445,68.477,132.401,64.266,127.266,63.85z"/>
		<path id="path-14_57_" style="opacity:0.35;fill:#020403;enable-background:new    ;" d="M208.113,155.968
			c-6.278-4.997-13.761-7.926-21.824-7.926c-1.698,0-3.366,0.171-5.005,0.422c-3.635-4.486-8.674-7.265-14.257-7.265
			c-2.099,0-4.087,0.501-5.988,1.23c-10.07-8.678-23.094-13.942-37.345-13.942c-11.218,0-21.65,3.297-30.514,8.91
			c-3.66-5.967-9.449-9.888-16.034-9.888c-10.046,0-18.298,9.021-19.758,20.764c-4.452,0.498-8.685,1.898-12.593,4.02v15.302h3.025
			c2.606-1.199,5.304-2.134,8.083-2.728c2.964-12.597,12.617-21.398,24.028-21.398c6.505,0,12.742,3.04,17.38,8.314
			c8.998-4.806,18.988-7.335,29.162-7.335c13.904,0,27.435,4.722,38.419,13.355c1.693-0.432,3.312-0.643,4.911-0.643
			c6.043,0,11.719,2.459,16.228,6.984c1.058-0.094,2.055-0.142,3.034-0.142c5.596,0,10.972,1.304,15.997,3.593h3.051V155.968z"/>
		<path id="path-15_48_" style="fill:#142A3B;" d="M170.618,85.908v6.147h9.101v-6.147h11.59v6.147h9.102V86.29h11.59v5.765v11.452
			v0.03h-52.973v-0.414V92.055v-6.147H170.618z"/>
		<path id="path-16_39_" style="fill:#142A3B;" d="M93.88,103.507V92.055V86.29H82.29v5.765h-9.102v-6.147H61.599v6.147h-9.103
			v-6.147h-11.59v6.147v11.068v0.414H93.88V103.507z"/>
		<path id="path-17_34_" style="fill:#FBB713;" d="M186.289,157.923c-1.698,0-3.366,0.173-5.005,0.423
			c-3.635-4.485-8.675-7.265-14.256-7.265c-2.1,0-4.087,0.501-5.988,1.229c-10.071-8.677-23.096-13.94-37.346-13.94
			c-11.218,0-21.651,3.296-30.514,8.908c-3.659-5.966-9.449-9.887-16.034-9.887c-10.046,0-18.298,9.022-19.758,20.764
			c-11.595,1.298-21.744,8.598-28.369,19.321h189.313C211.012,165.622,199.403,157.923,186.289,157.923z"/>
		<path id="path-18_25_" style="fill:#FFFFFF;" d="M202.326,174.208c-0.707,0-1.421-0.203-2.046-0.628
			c-5.288-3.574-11.276-5.464-17.317-5.464c-1.343,0-2.754,0.121-4.445,0.381l-2.079,0.319l-1.319-1.625
			c-3.091-3.816-7.145-5.917-11.417-5.917c-1.432,0-2.918,0.313-4.677,0.987l-2.043,0.782l-1.656-1.425
			c-9.772-8.42-22.188-13.056-34.96-13.056c-2.011,0-3.639-1.614-3.639-3.604c0-1.991,1.628-3.605,3.639-3.605
			c13.834,0,27.288,4.773,38.123,13.482c1.805-0.518,3.525-0.771,5.213-0.771c5.877,0,11.392,2.485,15.717,7.043
			c1.251-0.135,2.424-0.2,3.543-0.2c7.513,0,14.919,2.323,21.418,6.719c1.66,1.123,2.089,3.366,0.955,5.011
			C204.629,173.658,203.489,174.208,202.326,174.208z"/>
		<path id="path-19_20_" style="fill:#FFFFFF;" d="M88.932,156.123c-1.148,0-2.275-0.535-2.981-1.534
			c-3.199-4.518-7.506-7.006-12.13-7.006c-2.009,0-3.638-1.613-3.638-3.604s1.629-3.605,3.638-3.605
			c6.959,0,13.551,3.673,18.085,10.072c1.155,1.631,0.757,3.879-0.888,5.022C90.382,155.91,89.653,156.123,88.932,156.123z"/>
		<path id="path-20_15_" style="opacity:0.35;fill:#020403;enable-background:new    ;" d="M201.462,109.429l-38.74-3.294v-2.598
			h38.74V109.429z"/>
		<path id="path-21_11_" style="opacity:0.35;fill:#020403;enable-background:new    ;" d="M84.02,109.429l-38.741-3.294v-2.598
			H84.02V109.429z"/>
		<path id="path-22_5_" style="opacity:0.35;fill:#020403;enable-background:new    ;" d="M142.496,61.666l-38.735-3.295v-0.677
			h38.735V61.666z"/>
	</g>
</g>
<g>
</g>
<g>
</g>
<g>
</g>
<g>
</g>
<g>
</g>
<g>
</g>
<g>
</g>
<g>
</g>
<g>
</g>
<g>
</g>
<g>
</g>
<g>
</g>
<g>
</g>
<g>
</g>
<g>
</g>
</svg>
